<svg width="17" height="16" viewBox="0 0 17 16" fill="none" xmlns="http://www.w3.org/2000/svg">
<path d="M12.5 10.6667C11.9747 10.6667 11.5 10.8734 11.144 11.2047L6.44 8.46671C6.47333 8.31337 6.5 8.16004 6.5 8.00004C6.5 7.84004 6.47333 7.68671 6.44 7.53337L11.14 4.79337C11.5 5.12671 11.9733 5.33337 12.5 5.33337C13.6067 5.33337 14.5 4.44004 14.5 3.33337C14.5 2.22671 13.6067 1.33337 12.5 1.33337C11.3933 1.33337 10.5 2.22671 10.5 3.33337C10.5 3.49337 10.5267 3.64671 10.56 3.80004L5.86 6.54004C5.5 6.20671 5.02667 6.00004 4.5 6.00004C3.39333 6.00004 2.5 6.89337 2.5 8.00004C2.5 9.10671 3.39333 10 4.5 10C5.02667 10 5.5 9.79337 5.86 9.46004L10.5587 12.2054C10.5211 12.3563 10.5014 12.5112 10.5 12.6667C10.5 13.0623 10.6173 13.4489 10.8371 13.7778C11.0568 14.1067 11.3692 14.3631 11.7346 14.5145C12.1001 14.6658 12.5022 14.7054 12.8902 14.6283C13.2781 14.5511 13.6345 14.3606 13.9142 14.0809C14.1939 13.8012 14.3844 13.4448 14.4616 13.0569C14.5387 12.6689 14.4991 12.2668 14.3478 11.9013C14.1964 11.5359 13.94 11.2235 13.6111 11.0038C13.2822 10.784 12.8956 10.6667 12.5 10.6667Z" fill="white"/>
</svg>
